<?xml version="1.0" encoding="utf-8"?>
<!-- Generator: Adobe Illustrator 24.0.1, SVG Export Plug-In . SVG Version: 6.00 Build 0)  -->
<svg>
<g id="Icon">
	<path d="M0.7,36.3c0,0.1,0,0.1,0,0.1c1.2,6.2,4.5,10.4,10,12.5c4.5,1.7,9.7,1.7,14.7,1.8c8.7,0.1,14.1,0.5,15.9,5.4
		c0.4,1.1,1.5,1.9,2.6,1.9c0.3,0,0.7-0.1,0.9-0.2c1.5-0.5,2.2-2.1,1.7-3.6c-3.2-8.9-12.7-9-21.1-9.1c-4.5-0.1-9.2-0.1-12.8-1.5
		c-1.1-0.4-2-0.9-2.8-1.5l44.7,0.1c4,0,6.4,0.3,6.4-2.8c0-1.4-1.6-2.7-4-3.3c0.9-2.9,1.9-6.4,2.1-9.2c5.2-2,9.1-6.9,9.1-12.8
		c0-2.6-0.7-4.7-2-6.3c1.3-4.1,1-7.7,1-7.7l-7.6,3.7c-1.6-0.4-3.3-0.6-5.1-0.6c-1.7,0-3.3,0.2-4.8,0.5l-7.9-3.3c0,0,0.1,3.2,1.4,7
		c-1,1.3-1.8,2.8-2.1,4.6c-1.1-0.7-2.3-1.3-3.7-2c-1.5-0.7-3.1-1.4-4.8-1.9c-2.2-0.7-4.5-1.2-6.8-1.4c-1.8-0.1-3.7,0-5.5,0.4
		c-0.4,0.1-0.7,0.2-1.1,0.3c-2.2,0.5-4.7,1.5-7.2,2.9c-2.3,1.3-4.6,3.1-6.4,5.2c-0.1,0.1-0.2,0.2-0.3,0.3c-1.9,2.2-3.2,4.9-3.9,7.7
		C0,28.9-0.5,32.8,0.7,36.3z M58.2,12c0.3-0.2,0.7-0.3,0.9-0.4c0.1,1,0.3,1.8,0.5,1.8c0.3,0,0.5-1,0.6-2.4c0,0,0.1,0,0.1-0.1
		c0.7-0.4,1.6,0.1,1.6,0.9c0,0,0,0,0,0.1c0,1-0.9,1.9-2.2,1.9c-0.6,0-1.1-0.2-1.6-0.4C57.7,13,57.7,12.3,58.2,12z M47.9,11.9
		C47.9,11.9,47.9,11.8,47.9,11.9c0-0.9,0.9-1.3,1.6-0.9c0,0,0.1,0,0.1,0.1c0,1.3,0.3,2.4,0.6,2.4c0.3,0,0.5-0.8,0.5-1.8
		c0.3,0.1,0.6,0.3,0.9,0.4c0.5,0.2,0.5,0.9,0.1,1.3c-0.4,0.3-1,0.4-1.6,0.4C48.7,13.7,47.9,12.8,47.9,11.9z"/>
</g>
</svg>
