<?xml version="1.0" encoding="utf-8"?>
<!-- Generator: Adobe Illustrator 24.0.1, SVG Export Plug-In . SVG Version: 6.00 Build 0)  -->
<svg version="1.1" id="Layer_1" xmlns="http://www.w3.org/2000/svg" xmlns:xlink="http://www.w3.org/1999/xlink" x="0px" y="0px"
	 viewBox="0 0 746.5 507.29" style="enable-background:new 0 0 746.5 507.29;" xml:space="preserve">
<path class="st0" d="M0,507.29c12.59-39.49,31.51-80.78,66.68-106.01c35.91-25.75,88.37-18.99,128.14-6.49
	c48.23,15.15,87.05,56.09,138.06,59.14c62.05,3.71,100.54-21.58,138.02-58.93c45.77-45.61,71.35-99.92,65.16-164.38
	c-3.96-41.18-29.59-81.03-70.25-96.82c-39.85-15.48-89.53-5.2-112.84,31.55c-18.78,29.62-25.54,63.04-17.53,95.6
	c11.28,45.88,42.25,70.87,88.28,83.36c41.22,11.18,85.13,9.97,126.34-0.43c47.29-11.93,96.67-27.91,129.28-65.11
	c27.87-31.79,42.52-72.59,51.19-113c7.5-35,10.67-70.76,12.71-106.42c0.87-15.22,1.63-30.45,2.56-45.67
	c0.28-4.56,0.51-9.11,0.7-13.68"/>
</svg>
